<?xml version="1.0" standalone="no"?>
<!DOCTYPE svg PUBLIC "-//W3C//DTD SVG 20010904//EN"
 "http://www.w3.org/TR/2001/REC-SVG-20010904/DTD/svg10.dtd">
<svg version="1.0" xmlns="http://www.w3.org/2000/svg"
 width="1280.000000pt" height="833.000000pt" viewBox="0 0 1280.000000 833.000000"
 preserveAspectRatio="xMidYMid meet">
<g transform="translate(0.000000,833.000000) scale(0.100000,-0.100000)"
fill="#000000" stroke="none">
<path d="M6377 8278 c-122 -198 -408 -705 -600 -1063 -104 -196 -209 -434
-308 -700 -35 -93 -68 -173 -73 -177 -6 -4 -23 3 -37 15 -436 357 -671 515
-1039 698 -237 118 -475 215 -485 199 -11 -17 -35 -348 -41 -550 -10 -320 13
-618 65 -873 15 -73 16 -90 5 -94 -7 -3 -82 25 -166 60 -217 93 -355 143 -748
274 -322 107 -773 243 -804 243 -25 0 -41 -97 -40 -245 0 -158 14 -226 69
-340 59 -124 83 -143 252 -210 193 -77 435 -198 548 -274 50 -33 91 -56 93
-51 4 10 -67 189 -98 251 -39 75 -31 75 166 3 726 -262 1552 -666 2098 -1026
65 -43 122 -78 126 -78 5 0 11 19 15 43 16 92 181 525 285 742 128 271 652
1206 720 1286 l20 24 23 -27 c19 -24 68 -105 257 -433 52 -89 258 -465 358
-650 127 -238 270 -579 372 -887 18 -54 36 -98 41 -98 5 0 53 29 106 63 603
392 1296 728 2043 990 218 77 299 101 308 93 3 -4 -40 -99 -96 -213 -56 -114
-100 -208 -98 -210 2 -3 46 25 98 60 146 101 234 152 503 288 l250 126 53 69
c96 124 194 351 231 537 32 158 33 167 18 167 -20 0 -708 -189 -962 -264 -403
-119 -729 -230 -888 -300 -74 -33 -76 -28 -48 109 46 226 55 350 55 720 0 262
-4 389 -17 505 -9 85 -17 158 -17 163 0 16 -39 5 -174 -49 -432 -172 -914
-467 -1285 -786 -62 -54 -117 -98 -121 -98 -4 0 -29 60 -55 133 -88 245 -180
466 -270 648 -107 214 -591 1083 -630 1129 -7 8 -20 30 -29 48 -19 38 -31 40
-49 10z"/>
<path d="M6361 5602 c-290 -491 -635 -1129 -703 -1302 -15 -36 -47 -117 -73
-180 -358 -890 -410 -1663 -145 -2191 173 -343 499 -619 892 -753 l78 -26 97
36 c471 176 795 499 942 940 179 535 90 1247 -261 2092 -90 217 -151 342 -313
637 -257 470 -453 805 -470 805 -5 0 -25 -26 -44 -58z"/>
<path d="M179 5393 c79 -80 140 -152 187 -223 159 -239 294 -562 380 -905 105
-422 366 -898 685 -1251 455 -502 1117 -865 1849 -1014 80 -17 158 -30 175
-30 l29 0 -55 57 c-330 342 -513 805 -575 1455 -13 138 -15 232 -10 468 4 162
9 318 12 346 l6 51 -68 78 c-324 369 -909 690 -1614 884 -332 91 -623 144
-1072 196 l-47 6 118 -118z"/>
<path d="M12640 5503 c-958 -97 -1800 -381 -2350 -792 -111 -83 -342 -300
-373 -351 -13 -21 -14 -38 -5 -115 6 -49 11 -227 11 -395 0 -257 -4 -332 -22
-475 -77 -589 -250 -1014 -531 -1308 -70 -73 -87 -97 -72 -97 43 0 263 42 371
71 992 264 1731 842 2141 1674 112 228 160 359 235 640 55 204 139 426 227
597 101 197 263 413 377 503 50 39 63 57 39 53 -7 0 -29 -3 -48 -5z"/>
<path d="M3144 4652 c47 -91 62 -250 47 -507 -33 -584 -18 -876 65 -1212 131
-537 413 -1001 769 -1265 106 -79 284 -173 409 -217 49 -17 146 -44 215 -58
115 -25 146 -27 346 -28 207 0 314 10 417 41 13 4 -1 23 -62 85 -230 232 -376
591 -421 1039 -17 172 -14 527 7 705 26 225 26 236 -22 335 -110 228 -375 461
-783 685 -201 110 -483 240 -700 321 -162 61 -283 104 -292 104 -5 0 -3 -13 5
-28z"/>
<path d="M9445 4617 c-243 -90 -441 -176 -670 -292 -340 -172 -542 -309 -720
-489 -119 -119 -177 -202 -221 -309 l-28 -68 20 -152 c27 -213 27 -717 1 -887
-69 -433 -198 -723 -421 -940 -36 -35 -63 -67 -58 -71 18 -17 211 -42 364 -46
194 -6 311 5 478 47 316 79 558 225 794 479 177 190 360 515 465 826 133 396
166 734 132 1360 -18 326 -7 476 43 573 12 24 13 32 4 32 -7 -1 -89 -29 -183
-63z"/>
<path d="M840 2915 c-237 -33 -456 -94 -615 -171 -87 -42 -205 -125 -205 -143
0 -17 130 -129 218 -187 138 -92 339 -190 505 -247 28 -10 20 -33 -20 -57 -82
-48 -230 -169 -335 -274 l-112 -111 265 -6 c260 -7 524 -30 544 -50 6 -6 -20
-40 -76 -97 -129 -132 -309 -349 -309 -372 0 -19 405 -107 620 -135 446 -57
974 -8 1357 126 92 33 93 33 93 18 0 -14 -161 -210 -226 -276 -64 -64 -174
-118 -339 -168 -65 -20 -121 -38 -123 -40 -6 -6 81 -30 229 -64 556 -127 1189
-140 1894 -40 151 21 488 83 545 99 69 20 81 15 137 -58 54 -70 189 -208 258
-263 253 -201 577 -329 970 -381 197 -26 466 -9 715 44 224 48 488 157 665
276 154 103 232 177 410 389 l20 24 140 -30 c800 -171 1534 -206 2177 -106
154 24 436 87 468 105 10 6 1 11 -30 20 -151 39 -299 98 -374 150 -54 36 -288
311 -276 323 4 5 39 -3 77 -16 108 -39 334 -96 468 -117 395 -64 797 -50 1226
40 129 28 290 68 298 76 12 11 -183 249 -323 391 -49 51 -67 76 -60 83 19 19
267 41 532 47 144 3 262 9 262 13 0 13 -184 193 -259 253 -41 32 -108 82 -150
109 l-75 51 23 18 c13 11 29 19 35 19 19 0 182 68 276 115 48 24 135 76 194
115 101 68 226 173 226 190 0 5 -26 29 -57 54 -119 94 -338 180 -588 230 -116
23 -314 51 -319 44 -1 -2 -17 -28 -36 -58 -144 -233 -548 -618 -891 -849 -253
-170 -633 -303 -1014 -355 -175 -23 -378 -30 -469 -15 l-80 12 -25 -34 c-37
-50 -114 -121 -214 -200 -346 -270 -817 -453 -1295 -504 -158 -17 -411 -20
-462 -5 -34 10 -36 9 -83 -45 -118 -135 -343 -211 -720 -246 -149 -14 -255 -7
-507 31 -247 37 -475 113 -570 189 l-35 28 -200 6 c-421 12 -745 87 -1070 246
-266 130 -519 325 -638 490 l-32 43 -55 -8 c-75 -12 -314 -9 -441 5 -322 37
-712 154 -944 284 -199 112 -450 311 -676 536 -190 191 -298 315 -346 402 -32
56 -25 54 -173 34z"/>
</g>
</svg>
